<svg width="264" height="40" viewBox="0 0 264 40" fill="none" xmlns="http://www.w3.org/2000/svg">
<path d="M0.916 9.08H1.936L4.948 15.992L7.696 9.08H8.656L5.512 17H4.372L0.916 9.08ZM10.8107 17H9.91066V9.08H10.8107V17ZM17.7759 17H13.1919V9.08H17.5359V9.92H14.0919V12.38H16.7319V13.22H14.0919V16.16H17.7759V17ZM20.3614 10.52V17H19.4614V9.08H20.5534L24.6334 15.572V9.08H25.5334V17H24.4414L20.3614 10.52ZM28.8107 10.52V17H27.9107V9.08H29.0027L33.0827 15.572V9.08H33.9827V17H32.8907L28.8107 10.52ZM42.9719 17H41.9519L40.7879 14.336H37.2479L36.1919 17H35.2319L38.3999 9.08H39.4919L42.9719 17ZM37.5839 13.496H40.4159L38.9279 10.088L37.5839 13.496ZM47.4786 17H46.5786V9.08H47.4786V17ZM50.7599 10.52V17H49.8599V9.08H50.9519L55.0319 15.572V9.08H55.9319V17H54.8399L50.7599 10.52ZM58.7771 10.988C58.7771 11.188 58.8131 11.356 58.8851 11.492C58.9651 11.62 59.0851 11.736 59.2451 11.84C59.4131 11.944 59.6211 12.044 59.8691 12.14C60.1251 12.228 60.4291 12.332 60.7811 12.452C61.0771 12.548 61.3691 12.66 61.6571 12.788C61.9451 12.908 62.2011 13.06 62.4251 13.244C62.6571 13.42 62.8411 13.644 62.9771 13.916C63.1131 14.18 63.1811 14.504 63.1811 14.888C63.1811 15.296 63.1011 15.644 62.9411 15.932C62.7811 16.22 62.5691 16.456 62.3051 16.64C62.0411 16.816 61.7371 16.944 61.3931 17.024C61.0491 17.104 60.6931 17.144 60.3251 17.144C59.8051 17.144 59.3211 17.08 58.8731 16.952C58.4251 16.824 58.0371 16.668 57.7091 16.484L57.9611 15.608C58.1131 15.712 58.2651 15.812 58.4171 15.908C58.5691 15.996 58.7331 16.072 58.9091 16.136C59.0931 16.2 59.2931 16.252 59.5091 16.292C59.7251 16.332 59.9731 16.352 60.2531 16.352C60.6131 16.352 60.9211 16.32 61.1771 16.256C61.4331 16.192 61.6411 16.104 61.8011 15.992C61.9611 15.872 62.0771 15.732 62.1491 15.572C62.2211 15.412 62.2571 15.24 62.2571 15.056C62.2571 14.784 62.1931 14.556 62.0651 14.372C61.9371 14.18 61.7691 14.016 61.5611 13.88C61.3611 13.744 61.1371 13.632 60.8891 13.544C60.6491 13.448 60.4091 13.36 60.1691 13.28C59.8251 13.168 59.5131 13.048 59.2331 12.92C58.9531 12.792 58.7131 12.64 58.5131 12.464C58.3211 12.288 58.1691 12.084 58.0571 11.852C57.9531 11.62 57.9011 11.344 57.9011 11.024C57.9011 10.664 57.9651 10.36 58.0931 10.112C58.2291 9.856 58.4091 9.648 58.6331 9.488C58.8651 9.328 59.1371 9.212 59.4491 9.14C59.7611 9.06 60.0971 9.02 60.4571 9.02C60.8891 9.02 61.3051 9.064 61.7051 9.152C62.1051 9.24 62.4451 9.348 62.7251 9.476L62.4731 10.4C62.3451 10.288 62.1931 10.196 62.0171 10.124C61.8491 10.044 61.6691 9.984 61.4771 9.944C61.2931 9.896 61.1091 9.864 60.9251 9.848C60.7411 9.824 60.5691 9.812 60.4091 9.812C59.9051 9.812 59.5051 9.908 59.2091 10.1C58.9211 10.284 58.7771 10.58 58.7771 10.988ZM69.9105 9.92H67.3785V17H66.4785V9.92H63.9465V9.08H69.9105V9.92ZM71.3169 9.08C71.5969 9.064 71.8929 9.052 72.2049 9.044C72.5249 9.028 72.8249 9.02 73.1049 9.02C73.5369 9.02 73.9289 9.072 74.2809 9.176C74.6329 9.272 74.9329 9.416 75.1809 9.608C75.4369 9.8 75.6329 10.04 75.7689 10.328C75.9129 10.608 75.9849 10.932 75.9849 11.3C75.9849 11.812 75.8409 12.268 75.5529 12.668C75.2649 13.068 74.8209 13.348 74.2209 13.508L77.2569 17H76.1409L73.1769 13.616C72.8249 13.616 72.5049 13.604 72.2169 13.58V17H71.3169V9.08ZM73.1769 9.812C73.0089 9.812 72.8409 9.816 72.6729 9.824C72.5129 9.824 72.3609 9.828 72.2169 9.836V12.8C72.3609 12.816 72.5129 12.824 72.6729 12.824C72.8409 12.824 73.0169 12.824 73.2009 12.824C73.7929 12.824 74.2369 12.688 74.5329 12.416C74.8369 12.136 74.9889 11.732 74.9889 11.204C74.9889 10.788 74.8529 10.452 74.5809 10.196C74.3169 9.94 73.8489 9.812 73.1769 9.812ZM79.2696 13.928C79.2696 14.792 79.4576 15.412 79.8336 15.788C80.2176 16.164 80.7456 16.352 81.4176 16.352C82.0896 16.352 82.6176 16.164 83.0016 15.788C83.3856 15.412 83.5776 14.792 83.5776 13.928V9.08H84.4176V14.336C84.4176 14.728 84.3576 15.096 84.2376 15.44C84.1176 15.776 83.9336 16.072 83.6856 16.328C83.4376 16.576 83.1256 16.772 82.7496 16.916C82.3736 17.06 81.9296 17.132 81.4176 17.132C80.8576 17.132 80.3816 17.06 79.9896 16.916C79.6056 16.772 79.2936 16.576 79.0536 16.328C78.8136 16.072 78.6376 15.776 78.5256 15.44C78.4216 15.096 78.3696 14.728 78.3696 14.336V9.08H79.2696V13.928ZM90.6153 15.872L93.3033 9.08H94.4553V17H93.5553V11.012L91.1313 17H90.0513L87.6153 11V17H86.7153V9.08H87.9273L90.6153 15.872ZM101.413 17H96.8286V9.08H101.173V9.92H97.7286V12.38H100.369V13.22H97.7286V16.16H101.413V17ZM103.998 10.52V17H103.098V9.08H104.19L108.27 15.572V9.08H109.17V17H108.078L103.998 10.52ZM116.539 9.92H114.007V17H113.107V9.92H110.575V9.08H116.539V9.92ZM118.414 10.988C118.414 11.188 118.45 11.356 118.522 11.492C118.602 11.62 118.722 11.736 118.882 11.84C119.05 11.944 119.258 12.044 119.506 12.14C119.762 12.228 120.066 12.332 120.418 12.452C120.714 12.548 121.006 12.66 121.294 12.788C121.582 12.908 121.838 13.06 122.062 13.244C122.294 13.42 122.478 13.644 122.614 13.916C122.75 14.18 122.818 14.504 122.818 14.888C122.818 15.296 122.738 15.644 122.578 15.932C122.418 16.22 122.206 16.456 121.942 16.64C121.678 16.816 121.374 16.944 121.03 17.024C120.686 17.104 120.33 17.144 119.962 17.144C119.442 17.144 118.958 17.08 118.51 16.952C118.062 16.824 117.674 16.668 117.346 16.484L117.598 15.608C117.75 15.712 117.902 15.812 118.054 15.908C118.206 15.996 118.37 16.072 118.546 16.136C118.73 16.2 118.93 16.252 119.146 16.292C119.362 16.332 119.61 16.352 119.89 16.352C120.25 16.352 120.558 16.32 120.814 16.256C121.07 16.192 121.278 16.104 121.438 15.992C121.598 15.872 121.714 15.732 121.786 15.572C121.858 15.412 121.894 15.24 121.894 15.056C121.894 14.784 121.83 14.556 121.702 14.372C121.574 14.18 121.406 14.016 121.198 13.88C120.998 13.744 120.774 13.632 120.526 13.544C120.286 13.448 120.046 13.36 119.806 13.28C119.462 13.168 119.15 13.048 118.87 12.92C118.59 12.792 118.35 12.64 118.15 12.464C117.958 12.288 117.806 12.084 117.694 11.852C117.59 11.62 117.538 11.344 117.538 11.024C117.538 10.664 117.602 10.36 117.73 10.112C117.866 9.856 118.046 9.648 118.27 9.488C118.502 9.328 118.774 9.212 119.086 9.14C119.398 9.06 119.734 9.02 120.094 9.02C120.526 9.02 120.942 9.064 121.342 9.152C121.742 9.24 122.082 9.348 122.362 9.476L122.11 10.4C121.982 10.288 121.83 10.196 121.654 10.124C121.486 10.044 121.306 9.984 121.114 9.944C120.93 9.896 120.746 9.864 120.562 9.848C120.378 9.824 120.206 9.812 120.046 9.812C119.542 9.812 119.142 9.908 118.846 10.1C118.558 10.284 118.414 10.58 118.414 10.988Z" fill="black"/>
<path d="M156.36 6.84H151.296V21H149.496V6.84H144.432V5.16H156.36V6.84ZM160.973 21H159.173V5.16H160.973V21ZM173.247 14.64V15.888H165.135V14.64H173.247ZM176.711 6.312C177.319 5.944 178.015 5.64 178.799 5.4C179.599 5.16 180.391 5.04 181.175 5.04C181.847 5.04 182.463 5.136 183.023 5.328C183.583 5.52 184.063 5.792 184.463 6.144C184.879 6.48 185.199 6.888 185.423 7.368C185.647 7.848 185.759 8.376 185.759 8.952C185.759 9.8 185.543 10.496 185.111 11.04C184.679 11.568 184.135 12.016 183.479 12.384C184.439 12.704 185.183 13.184 185.711 13.824C186.255 14.464 186.527 15.304 186.527 16.344C186.527 17.016 186.407 17.656 186.167 18.264C185.927 18.856 185.559 19.376 185.063 19.824C184.567 20.272 183.951 20.632 183.215 20.904C182.479 21.16 181.623 21.288 180.647 21.288C178.663 21.288 177.031 20.744 175.751 19.656L176.423 17.472C176.983 17.936 177.607 18.304 178.295 18.576C178.983 18.848 179.719 18.984 180.503 18.984C181.511 18.984 182.271 18.752 182.783 18.288C183.311 17.808 183.575 17.112 183.575 16.2C183.575 15.384 183.335 14.744 182.855 14.28C182.391 13.8 181.607 13.56 180.503 13.56H179.855V11.472H180.599C181.303 11.472 181.847 11.248 182.231 10.8C182.615 10.352 182.807 9.76 182.807 9.024C182.807 8.368 182.607 7.912 182.207 7.656C181.807 7.384 181.327 7.248 180.767 7.248C180.463 7.248 180.143 7.28 179.807 7.344C179.487 7.408 179.175 7.504 178.871 7.632C178.567 7.744 178.279 7.88 178.007 8.04C177.751 8.184 177.527 8.344 177.335 8.52L176.711 6.312ZM195.366 5.04C196.39 5.04 197.294 5.264 198.078 5.712C198.878 6.144 199.55 6.728 200.094 7.464C200.638 8.2 201.046 9.056 201.318 10.032C201.606 10.992 201.75 12.008 201.75 13.08C201.75 14.152 201.606 15.184 201.318 16.176C201.03 17.152 200.606 18.024 200.046 18.792C199.502 19.544 198.822 20.152 198.006 20.616C197.19 21.064 196.254 21.288 195.198 21.288C194.158 21.288 193.246 21.072 192.462 20.64C191.694 20.208 191.054 19.624 190.542 18.888C190.03 18.152 189.638 17.304 189.366 16.344C189.11 15.368 188.982 14.344 188.982 13.272C188.982 12.136 189.126 11.072 189.414 10.08C189.702 9.072 190.118 8.2 190.662 7.464C191.206 6.712 191.87 6.12 192.654 5.688C193.454 5.256 194.358 5.04 195.366 5.04ZM195.294 18.984C195.902 18.984 196.422 18.84 196.854 18.552C197.302 18.248 197.67 17.832 197.958 17.304C198.246 16.776 198.462 16.152 198.606 15.432C198.75 14.712 198.822 13.936 198.822 13.104C198.822 12.256 198.75 11.48 198.606 10.776C198.462 10.072 198.238 9.464 197.934 8.952C197.646 8.44 197.278 8.048 196.83 7.776C196.382 7.488 195.862 7.344 195.27 7.344C194.678 7.344 194.166 7.488 193.734 7.776C193.318 8.048 192.974 8.44 192.702 8.952C192.446 9.448 192.254 10.056 192.126 10.776C191.998 11.48 191.934 12.256 191.934 13.104C191.934 15.04 192.222 16.504 192.798 17.496C193.39 18.488 194.222 18.984 195.294 18.984ZM210.553 14.592L206.257 21H203.233L209.089 12.84L203.593 5.16H206.689L210.697 11.352L214.657 5.16H217.681L212.161 12.864L217.993 21H214.897L210.553 14.592ZM222.449 21H220.649V5.16H222.449V21ZM229.012 21H227.212V5.16H229.012V21ZM234.71 8.976C234.71 9.376 234.782 9.712 234.926 9.984C235.086 10.24 235.326 10.472 235.646 10.68C235.982 10.888 236.398 11.088 236.894 11.28C237.406 11.456 238.014 11.664 238.718 11.904C239.31 12.096 239.894 12.32 240.47 12.576C241.046 12.816 241.558 13.12 242.006 13.488C242.47 13.84 242.838 14.288 243.11 14.832C243.382 15.36 243.518 16.008 243.518 16.776C243.518 17.592 243.358 18.288 243.038 18.864C242.718 19.44 242.294 19.912 241.766 20.28C241.238 20.632 240.63 20.888 239.942 21.048C239.254 21.208 238.542 21.288 237.806 21.288C236.766 21.288 235.798 21.16 234.902 20.904C234.006 20.648 233.23 20.336 232.574 19.968L233.078 18.216C233.382 18.424 233.686 18.624 233.99 18.816C234.294 18.992 234.622 19.144 234.974 19.272C235.342 19.4 235.742 19.504 236.174 19.584C236.606 19.664 237.102 19.704 237.662 19.704C238.382 19.704 238.998 19.64 239.51 19.512C240.022 19.384 240.438 19.208 240.758 18.984C241.078 18.744 241.31 18.464 241.454 18.144C241.598 17.824 241.67 17.48 241.67 17.112C241.67 16.568 241.542 16.112 241.286 15.744C241.03 15.36 240.694 15.032 240.278 14.76C239.878 14.488 239.43 14.264 238.934 14.088C238.454 13.896 237.974 13.72 237.494 13.56C236.806 13.336 236.182 13.096 235.622 12.84C235.062 12.584 234.582 12.28 234.182 11.928C233.798 11.576 233.494 11.168 233.27 10.704C233.062 10.24 232.958 9.688 232.958 9.048C232.958 8.328 233.086 7.72 233.342 7.224C233.614 6.712 233.974 6.296 234.422 5.976C234.886 5.656 235.43 5.424 236.054 5.28C236.678 5.12 237.35 5.04 238.07 5.04C238.934 5.04 239.766 5.128 240.566 5.304C241.366 5.48 242.046 5.696 242.606 5.952L242.102 7.8C241.846 7.576 241.542 7.392 241.19 7.248C240.854 7.088 240.494 6.968 240.11 6.888C239.742 6.792 239.374 6.728 239.006 6.696C238.638 6.648 238.294 6.624 237.974 6.624C236.966 6.624 236.166 6.816 235.574 7.2C234.998 7.568 234.71 8.16 234.71 8.976Z" fill="black"/>
</svg>
